<svg width="24" height="25" viewBox="0 0 24 25" fill="none" xmlns="http://www.w3.org/2000/svg">
<path d="M19.2979 10.066H4.70186C4.40653 10.0666 4.11514 10.1338 3.84937 10.2627C3.58361 10.3915 3.35032 10.5786 3.16686 10.81C2.98463 11.0412 2.85727 11.3107 2.79439 11.5982C2.73151 11.8858 2.73475 12.1839 2.80386 12.47L4.36886 18.878C4.59504 19.7038 5.08709 20.432 5.76886 20.95C6.45086 21.469 7.28586 21.75 8.14486 21.75H15.8529C16.7119 21.75 17.5469 21.469 18.2289 20.95C18.9106 20.432 19.4027 19.7038 19.6289 18.878L21.1939 12.471C21.2992 12.0391 21.253 11.584 21.0629 11.1821C20.8729 10.7802 20.5505 10.4557 20.1499 10.263C19.8837 10.1338 19.5917 10.0665 19.2959 10.066M8.08686 13.96V17.855M11.9999 13.96V17.855M15.9129 13.96V17.855M18.8479 10.066C18.8475 9.17005 18.6701 8.28299 18.3259 7.45582C17.9816 6.62864 17.4773 5.87765 16.8419 5.246C15.5551 3.96687 13.8142 3.24924 11.9999 3.25C10.1855 3.24924 8.44463 3.96687 7.15786 5.246C6.52263 5.87773 6.01848 6.62876 5.6744 7.45593C5.33032 8.2831 5.15308 9.17012 5.15286 10.066" stroke="black" stroke-width="1.5" stroke-linecap="round" stroke-linejoin="round"/>
</svg>
